<?xml version="1.0" standalone="no"?>
<!DOCTYPE svg PUBLIC "-//W3C//DTD SVG 20010904//EN"
 "http://www.w3.org/TR/2001/REC-SVG-20010904/DTD/svg10.dtd">
<svg version="1.0" xmlns="http://www.w3.org/2000/svg"
 width="512.000000pt" height="512.000000pt" viewBox="0 0 512.000000 512.000000"
 preserveAspectRatio="xMidYMid meet">

<g transform="translate(0.000000,512.000000) scale(0.100000,-0.100000)"
fill="#435ebe" stroke="none">
<path d="M2435 4854 c-337 -26 -623 -101 -894 -235 -704 -348 -1173 -1011
-1272 -1797 -15 -121 -15 -417 0 -537 58 -451 241 -871 529 -1215 367 -438
902 -726 1487 -801 120 -15 416 -15 540 0 1062 133 1879 949 2016 2016 6 50
12 171 12 270 0 99 -6 221 -12 270 -78 606 -383 1155 -847 1525 -330 263 -755
442 -1159 489 -105 12 -328 20 -400 15z m555 -119 c0 -11 11 -15 40 -15 40 0
159 -34 255 -72 28 -11 64 -23 81 -28 17 -4 44 -14 60 -23 16 -9 67 -34 114
-57 47 -22 94 -46 105 -53 415 -246 706 -553 903 -952 19 -38 45 -91 58 -117
13 -26 24 -56 24 -65 0 -10 12 -40 25 -68 14 -27 25 -60 25 -72 0 -12 9 -45
20 -73 11 -28 23 -75 26 -105 5 -37 11 -55 20 -55 12 0 14 -74 14 -430 0 -356
-2 -430 -14 -430 -9 0 -15 -18 -20 -55 -3 -30 -15 -77 -26 -105 -11 -28 -20
-61 -20 -73 0 -12 -11 -44 -25 -72 -13 -27 -25 -58 -25 -68 0 -10 -9 -35 -20
-55 -10 -20 -37 -73 -58 -117 -152 -309 -387 -597 -642 -785 -18 -14 -45 -34
-59 -45 -67 -53 -193 -128 -316 -187 -44 -22 -97 -48 -117 -59 -20 -10 -45
-19 -55 -19 -10 0 -35 -9 -56 -20 -21 -12 -57 -25 -80 -30 -23 -5 -67 -18 -97
-29 -30 -11 -74 -20 -97 -21 -31 0 -43 -4 -43 -15 0 -13 -54 -15 -430 -15
-356 0 -430 2 -430 14 0 9 -18 15 -55 20 -30 3 -77 15 -105 26 -28 11 -61 20
-73 20 -12 0 -44 11 -72 25 -27 13 -58 25 -69 25 -10 0 -35 9 -55 19 -20 11
-74 38 -121 61 -47 23 -105 54 -130 70 -25 16 -55 34 -68 40 -49 21 -238 167
-337 259 -133 125 -304 332 -370 448 -9 16 -27 48 -41 73 -15 25 -42 77 -61
115 -20 39 -46 91 -59 117 -13 26 -24 56 -24 65 0 10 -12 41 -25 68 -14 28
-25 61 -25 75 0 14 -9 45 -21 69 -11 25 -22 71 -26 103 -4 39 -10 58 -19 58
-12 0 -14 74 -14 430 0 356 2 430 14 430 9 0 15 19 19 58 4 33 16 80 27 106
11 26 20 57 20 69 0 12 11 46 25 75 14 30 25 60 25 68 0 14 11 37 82 180 169
337 403 608 716 833 40 28 83 56 95 62 12 5 42 23 67 39 25 16 83 47 130 70
141 69 168 80 275 115 146 48 177 56 223 62 34 4 52 10 52 19 0 12 74 14 430
14 376 0 430 -2 430 -15z"/>
<path d="M2440 4534 c-25 -3 -79 -11 -120 -19 -41 -7 -104 -17 -140 -21 -36
-3 -87 -15 -113 -25 -26 -11 -60 -19 -75 -19 -15 0 -49 -12 -77 -25 -27 -14
-58 -25 -68 -25 -17 0 -95 -36 -174 -80 -10 -5 -34 -17 -53 -25 -63 -28 -106
-53 -119 -69 -8 -9 -19 -16 -26 -16 -33 0 -298 -229 -398 -345 -104 -119 -177
-215 -177 -230 0 -6 -8 -19 -18 -28 -10 -9 -44 -69 -76 -134 -32 -65 -67 -134
-77 -154 -10 -20 -19 -44 -19 -52 0 -8 -11 -39 -25 -69 -14 -29 -25 -65 -25
-80 0 -15 -9 -49 -19 -76 -11 -27 -23 -78 -26 -113 -4 -35 -14 -100 -22 -144
-22 -108 -22 -362 0 -470 8 -44 18 -109 22 -144 3 -35 15 -86 26 -113 10 -27
19 -61 19 -76 0 -15 11 -51 25 -80 14 -30 25 -60 25 -68 0 -15 15 -48 85 -184
21 -41 46 -91 56 -111 10 -19 25 -41 33 -49 9 -7 16 -18 16 -25 0 -30 226
-295 328 -385 87 -76 219 -178 247 -191 11 -5 48 -27 82 -48 35 -22 73 -43 85
-47 13 -3 35 -15 50 -25 14 -11 31 -19 37 -19 5 0 31 -11 57 -25 26 -14 55
-25 64 -25 10 0 42 -11 72 -25 29 -14 63 -25 75 -25 12 0 44 -8 70 -19 26 -10
77 -22 113 -25 36 -4 101 -14 145 -23 53 -11 131 -17 235 -17 104 0 182 6 235
17 44 9 109 19 145 23 36 3 85 14 110 24 25 9 65 20 88 24 24 4 61 15 83 26
21 11 46 20 55 20 9 0 37 11 63 24 25 13 73 37 106 53 53 26 99 52 206 115 95
57 288 222 374 322 33 37 65 73 70 80 16 18 119 159 132 181 68 114 79 134
160 297 12 26 23 56 23 66 0 10 9 36 20 57 11 22 23 58 27 80 3 22 14 61 24
87 10 26 21 78 24 115 4 37 14 102 23 143 21 101 21 356 -1 465 -8 44 -18 109
-22 144 -3 35 -15 86 -26 113 -10 27 -19 61 -19 76 0 15 -12 50 -25 77 -14 28
-25 58 -25 69 0 10 -9 35 -19 55 -11 20 -36 70 -55 111 -20 41 -52 100 -71
130 -19 30 -39 64 -44 75 -14 31 -115 161 -189 245 -88 100 -327 305 -384 330
-13 6 -43 24 -68 40 -25 16 -83 47 -130 70 -47 23 -101 50 -121 61 -20 10 -44
19 -52 19 -8 0 -39 11 -69 25 -29 14 -65 25 -80 25 -15 0 -49 9 -75 19 -27 10
-80 22 -118 26 -39 4 -100 13 -137 21 -71 14 -282 25 -358 18z m220 -940 c30
-14 78 -37 106 -50 28 -13 56 -24 62 -24 7 0 33 -11 59 -24 27 -14 73 -36 103
-49 150 -68 178 -80 211 -98 20 -10 45 -19 55 -19 11 0 37 -12 59 -25 22 -14
47 -25 56 -25 9 0 27 -8 40 -19 13 -10 35 -22 49 -26 27 -8 112 -45 170 -75
19 -10 49 -21 67 -25 17 -3 37 -13 44 -21 6 -8 31 -19 55 -25 24 -6 49 -17 55
-25 6 -8 17 -14 24 -14 6 0 32 -11 57 -24 24 -13 55 -27 69 -31 13 -4 49 -18
79 -32 30 -14 73 -33 95 -43 192 -87 215 -105 215 -177 0 -56 -11 -77 -58
-108 -20 -14 -51 -35 -68 -47 -18 -13 -96 -67 -175 -121 -79 -53 -155 -105
-169 -114 -14 -10 -38 -28 -53 -40 -35 -28 -42 -28 -67 -3 -17 17 -20 33 -20
109 0 143 -47 241 -152 317 -27 19 -51 34 -56 34 -4 0 -24 9 -44 20 -34 18
-58 25 -213 64 -146 37 -357 51 -755 51 -479 0 -627 -14 -879 -82 -30 -8 -64
-21 -75 -28 -12 -7 -32 -16 -45 -20 -37 -11 -113 -69 -147 -112 -47 -58 -74
-148 -74 -244 0 -105 -10 -123 -61 -115 l-39 6 0 -171 0 -171 45 -50 c37 -42
45 -57 46 -92 2 -91 -4 -120 -39 -184 -19 -37 -44 -83 -54 -102 -41 -77 -74
-123 -93 -130 -29 -11 -64 6 -77 37 -7 15 -18 35 -24 43 -7 9 -38 64 -69 123
-51 100 -55 112 -55 177 0 67 1 71 45 125 l45 55 -2 257 -3 256 -55 39 c-30
21 -86 59 -123 85 -85 58 -97 75 -97 138 0 72 16 85 210 172 25 11 70 32 101
47 31 14 60 26 64 26 5 0 38 14 74 31 36 16 84 38 106 48 22 10 60 27 85 38
25 12 70 32 100 45 30 14 80 37 111 52 31 14 60 26 64 26 5 0 38 14 74 31 62
29 92 43 194 88 23 10 72 33 109 50 37 17 70 31 74 31 4 0 32 12 63 26 53 25
79 37 196 90 28 12 75 34 105 48 71 34 128 34 200 0z m535 -861 c50 -12 113
-26 140 -31 115 -24 207 -73 260 -139 29 -37 30 -40 33 -172 2 -73 1 -144 -2
-157 -9 -34 -48 -41 -89 -15 -19 12 -70 27 -114 35 -44 8 -89 19 -101 25 -11
6 -64 13 -118 16 -55 4 -146 13 -204 22 -150 23 -730 23 -880 0 -58 -9 -149
-18 -204 -22 -54 -3 -107 -10 -118 -16 -12 -6 -57 -17 -101 -25 -44 -8 -95
-23 -114 -35 -41 -26 -80 -19 -89 15 -3 13 -4 84 -2 157 3 132 4 135 33 172
54 68 142 115 260 139 28 5 82 17 120 26 117 26 211 30 715 28 451 -2 491 -4
575 -23z m-340 -553 c163 -6 282 -14 320 -23 33 -8 92 -18 130 -22 39 -4 86
-14 105 -21 19 -8 54 -19 77 -24 23 -6 62 -24 87 -41 46 -31 63 -62 52 -97 -8
-24 -91 -78 -136 -87 -19 -4 -57 -16 -83 -26 -26 -11 -66 -19 -88 -19 -22 0
-86 -10 -142 -22 -98 -22 -120 -23 -617 -23 -497 0 -519 1 -617 23 -56 12
-120 22 -142 22 -22 0 -62 8 -88 19 -26 10 -64 22 -83 26 -45 9 -128 63 -136
87 -7 22 4 78 15 78 5 0 25 11 45 25 21 14 56 29 79 35 23 5 58 16 77 24 19 7
67 17 105 21 39 4 99 14 135 23 41 10 143 18 280 22 318 10 342 10 625 0z"/>
<path d="M5030 905 c-10 -12 -10 -18 0 -30 7 -8 18 -15 25 -15 7 0 18 7 25 15
10 12 10 18 0 30 -7 8 -18 15 -25 15 -7 0 -18 -7 -25 -15z"/>
</g>
</svg>
