<?xml version="1.0" standalone="no"?>
<!DOCTYPE svg PUBLIC "-//W3C//DTD SVG 20010904//EN"
 "http://www.w3.org/TR/2001/REC-SVG-20010904/DTD/svg10.dtd">
<svg version="1.0" xmlns="http://www.w3.org/2000/svg"
 width="512.000000pt" height="512.000000pt" viewBox="0 0 512.000000 512.000000"
 preserveAspectRatio="xMidYMid meet">

<g transform="translate(0.000000,512.000000) scale(0.100000,-0.100000)"
fill="#435ebe" stroke="none">
<path d="M2435 4854 c-337 -26 -623 -101 -894 -235 -704 -348 -1173 -1011
-1272 -1797 -15 -121 -15 -417 0 -537 58 -451 241 -871 529 -1215 367 -438
902 -726 1487 -801 120 -15 416 -15 540 0 1062 133 1879 949 2016 2016 6 50
12 171 12 270 0 99 -6 221 -12 270 -78 606 -383 1155 -847 1525 -330 263 -755
442 -1159 489 -105 12 -328 20 -400 15z m505 -123 c482 -89 880 -304 1220
-657 306 -318 499 -699 581 -1144 27 -147 37 -450 20 -611 -45 -430 -222 -850
-496 -1179 -83 -100 -272 -282 -365 -351 -291 -218 -599 -353 -965 -421 -104
-20 -153 -23 -375 -23 -281 0 -379 13 -603 76 -732 206 -1320 794 -1526 1526
-63 224 -76 322 -76 603 0 222 3 271 23 375 85 454 275 830 582 1149 340 354
751 575 1220 655 164 29 171 29 420 26 177 -2 249 -7 340 -24z"/>
<path d="M2440 4574 c-885 -62 -1621 -669 -1840 -1518 -46 -177 -62 -311 -62
-506 0 -416 111 -783 343 -1130 318 -474 817 -788 1394 -876 147 -22 423 -22
570 0 819 125 1470 708 1675 1500 46 177 62 311 62 506 0 195 -16 329 -62 506
-204 789 -867 1384 -1670 1498 -113 16 -320 26 -410 20z m-286 -769 c3 -8 12
-15 20 -15 18 0 133 -61 193 -102 24 -16 75 -60 113 -98 39 -39 75 -70 80 -70
5 0 40 31 78 69 94 93 259 201 308 201 8 0 17 7 20 15 5 13 40 15 230 15 140
0 224 -4 224 -10 0 -5 11 -12 25 -16 13 -3 48 -19 77 -35 29 -15 71 -38 92
-50 37 -20 131 -108 188 -176 38 -45 118 -195 118 -221 0 -12 5 -22 10 -22 6
0 10 -87 10 -240 0 -153 -4 -240 -10 -240 -5 0 -10 -12 -10 -27 0 -16 -9 -48
-20 -72 -11 -24 -20 -48 -20 -55 0 -6 -8 -27 -19 -46 -10 -19 -22 -46 -26 -58
-9 -31 -108 -203 -153 -267 -90 -127 -191 -253 -287 -354 -183 -194 -466 -451
-639 -579 -39 -29 -72 -57 -74 -62 -4 -12 -239 -14 -244 -2 -1 5 -64 57 -138
117 -111 89 -212 173 -286 240 -6 6 -60 57 -120 115 -296 287 -486 537 -619
812 -50 104 -46 108 90 108 l103 0 49 -39 c26 -21 68 -60 93 -86 25 -26 63
-60 84 -76 86 -63 112 -39 251 238 98 194 113 218 134 218 20 0 26 -7 33 -35
5 -19 13 -43 18 -52 5 -10 14 -34 19 -55 9 -36 27 -92 57 -173 16 -44 41 -122
59 -180 14 -48 27 -86 55 -165 10 -27 21 -62 24 -76 8 -37 41 -75 75 -87 39
-14 87 12 111 59 32 61 60 126 60 138 0 6 9 28 20 48 11 21 20 45 20 53 0 8 7
24 15 34 8 11 15 27 15 36 0 8 8 31 18 50 11 19 22 47 25 61 4 15 23 41 42 58
l36 31 137 0 138 0 30 -31 c42 -45 115 -79 166 -78 25 0 66 11 98 27 49 24 59
34 88 91 38 76 39 95 10 164 -28 67 -43 84 -101 114 -86 43 -169 27 -254 -49
l-43 -38 -132 0 c-118 0 -140 -3 -199 -25 -91 -35 -139 -79 -181 -167 -19 -40
-39 -86 -42 -103 -19 -78 -69 -41 -102 75 -18 64 -44 140 -59 175 -7 17 -16
46 -20 65 -4 19 -11 40 -16 45 -4 6 -12 29 -18 50 -11 45 -35 116 -63 187 -10
26 -18 55 -18 66 0 31 -66 92 -100 92 -54 0 -80 -37 -214 -307 -70 -142 -131
-265 -135 -273 -16 -30 -48 -22 -107 29 -83 71 -151 91 -310 91 -67 0 -129 3
-138 6 -14 5 -16 33 -16 205 0 126 4 199 10 199 6 0 10 10 10 23 1 37 93 195
154 263 32 36 81 82 110 104 56 42 169 104 210 114 14 3 26 11 26 16 0 6 84
10 224 10 190 0 225 -2 230 -15z"/>
<path d="M5030 905 c-10 -12 -10 -18 0 -30 7 -8 18 -15 25 -15 7 0 18 7 25 15
10 12 10 18 0 30 -7 8 -18 15 -25 15 -7 0 -18 -7 -25 -15z"/>
</g>
</svg>
