<?xml version="1.0" standalone="no"?>
<!DOCTYPE svg PUBLIC "-//W3C//DTD SVG 20010904//EN"
 "http://www.w3.org/TR/2001/REC-SVG-20010904/DTD/svg10.dtd">
<svg version="1.0" xmlns="http://www.w3.org/2000/svg"
 width="512.000000pt" height="512.000000pt" viewBox="0 0 512.000000 512.000000"
 preserveAspectRatio="xMidYMid meet">

<g transform="translate(0.000000,512.000000) scale(0.100000,-0.100000)"
fill="#435ebe" stroke="none">
<path d="M2435 4854 c-337 -26 -623 -101 -894 -235 -704 -348 -1173 -1011
-1272 -1797 -15 -121 -15 -417 0 -537 58 -451 241 -871 529 -1215 367 -438
902 -726 1487 -801 120 -15 416 -15 540 0 1062 133 1879 949 2016 2016 6 50
12 171 12 270 0 99 -6 221 -12 270 -78 606 -383 1155 -847 1525 -330 263 -755
442 -1159 489 -105 12 -328 20 -400 15z m417 -100 c899 -116 1640 -776 1863
-1659 88 -346 88 -734 0 -1080 -200 -794 -816 -1410 -1610 -1610 -346 -88
-734 -88 -1080 0 -883 223 -1543 964 -1659 1863 -21 159 -21 415 0 574 105
811 659 1506 1429 1793 131 49 333 100 470 118 151 20 433 21 587 1z"/>
<path d="M2440 4614 c-983 -70 -1767 -794 -1916 -1769 -22 -148 -22 -432 0
-580 70 -454 268 -847 586 -1165 318 -318 711 -516 1165 -586 148 -22 432 -22
580 0 454 70 847 268 1165 586 319 318 516 711 586 1165 22 148 22 432 0 580
-67 433 -253 817 -549 1130 -309 328 -748 555 -1197 619 -112 16 -329 26 -420
20z m243 -1274 c7 -5 28 -23 48 -40 20 -16 40 -30 43 -30 22 0 97 -44 117 -68
70 -83 97 -226 64 -335 -13 -43 -13 -52 1 -87 15 -36 15 -44 0 -86 -8 -25 -25
-54 -36 -64 -11 -10 -34 -44 -50 -76 -17 -33 -46 -76 -65 -98 -30 -33 -35 -45
-35 -88 0 -27 7 -62 15 -77 14 -28 85 -79 155 -113 130 -62 160 -78 199 -102
132 -84 221 -223 221 -348 l0 -48 -800 0 -800 0 0 48 c0 26 8 70 18 97 48 137
135 225 307 307 236 114 265 140 265 234 0 45 -5 57 -35 90 -19 22 -49 66 -65
98 -16 33 -39 65 -49 73 -11 7 -27 36 -36 63 -15 46 -15 54 -2 89 12 30 13 46
5 77 -42 157 8 331 122 421 30 24 65 46 78 49 12 4 22 10 22 15 0 12 278 11
293 -1z m-663 -175 c9 -11 10 -25 2 -58 -7 -25 -11 -127 -10 -238 1 -225 4
-236 92 -368 31 -46 56 -87 56 -91 0 -12 -67 -101 -87 -115 -11 -7 -55 -32
-98 -55 -149 -79 -248 -170 -303 -282 -31 -64 -62 -186 -62 -245 l0 -33 -180
0 -180 0 0 81 c0 72 3 88 30 134 52 91 107 135 272 216 110 54 141 78 164 121
20 38 18 50 -16 93 -16 20 -43 65 -60 99 -17 33 -42 79 -55 101 -27 43 -32 94
-13 124 9 15 9 28 0 59 -18 61 -15 171 8 236 27 79 55 115 109 139 25 11 54
29 64 40 39 46 68 56 163 56 70 1 95 -3 104 -14z m1298 -2 c15 -9 36 -26 47
-38 11 -12 41 -31 66 -42 54 -24 82 -60 109 -139 23 -65 26 -175 8 -236 -9
-31 -9 -44 0 -59 19 -30 14 -81 -13 -124 -13 -22 -38 -68 -55 -101 -17 -34
-44 -79 -60 -99 -35 -43 -36 -52 -14 -98 17 -35 77 -79 154 -112 131 -56 232
-135 278 -217 15 -26 30 -48 35 -48 4 0 7 -38 7 -85 l0 -85 -185 0 -185 0 0
33 c0 59 -31 181 -62 245 -55 112 -154 203 -303 282 -43 23 -87 48 -98 55 -20
14 -87 103 -87 115 0 4 25 45 56 91 88 131 91 145 93 359 0 105 -4 208 -11
237 -16 76 -7 83 104 83 66 0 96 -4 116 -17z"/>
<path d="M5030 905 c-10 -12 -10 -18 0 -30 7 -8 18 -15 25 -15 7 0 18 7 25 15
10 12 10 18 0 30 -7 8 -18 15 -25 15 -7 0 -18 -7 -25 -15z"/>
</g>
</svg>
